<?xml version="1.0" encoding="UTF-8"?>
<svg id="userIcons" xmlns="http://www.w3.org/2000/svg" xmlns:xlink="http://www.w3.org/1999/xlink" viewBox="0 0 200 200">
  <defs>
    <style>
      .cls-1 {
        fill: url(#linear-gradient);
      }

      .cls-2 {
        opacity: .05;
      }

      .cls-3 {
        fill: #333;
      }

      .cls-4 {
        fill: url(#linear-gradient-2);
      }
    </style>
    <linearGradient id="linear-gradient" x1="100.23" y1="111.96" x2="100.23" y2="192.43" gradientUnits="userSpaceOnUse">
      <stop offset="0" stop-color="gray"/>
      <stop offset="1" stop-color="#4d4d4d"/>
    </linearGradient>
    <linearGradient id="linear-gradient-2" x1="95.61" y1="6.6" x2="95.61" y2="101.15" gradientUnits="userSpaceOnUse">
      <stop offset="0" stop-color="#b3b3b3"/>
      <stop offset="1" stop-color="#1a1a1a"/>
    </linearGradient>
  </defs>
  <path class="cls-1" d="m197.8,196.9H2.67c3.79-30.41,21.47-56.51,46.49-71.74,14.88-9.08,32.37-14.3,51.08-14.3,15.01,0,29.24,3.37,41.96,9.39,29.79,14.07,51.37,42.66,55.6,76.65Z"/>
  <g class="cls-2">
    <path class="cls-3" d="m142.2,120.25c-9.8,16.37-27.7,27.33-48.18,27.33-18.34,0-34.64-8.81-44.86-22.42,14.88-9.08,32.37-14.3,51.08-14.3,15.01,0,29.24,3.37,41.96,9.39Z"/>
  </g>
  <circle class="cls-4" cx="95.61" cy="61.44" r="56.11"/>
</svg>